Coordinates
version=1
nRows=8
nColumns=40
inDegrees=yes

Units are S.I. units (second, meters, Newtons, ...)
Angles are in degrees.

endheader
time	pelvis_tilt	pelvis_list	pelvis_rotation	pelvis_tx	pelvis_ty	pelvis_tz	hip_flexion_r	hip_adduction_r	hip_rotation_r	knee_angle_r	knee_angle_r_beta	ankle_angle_r	subtalar_angle_r	mtp_angle_r	hip_flexion_l	hip_adduction_l	hip_rotation_l	knee_angle_l	knee_angle_l_beta	ankle_angle_l	subtalar_angle_l	mtp_angle_l	lumbar_extension	lumbar_bending	lumbar_rotation	arm_flex_r	arm_add_r	arm_rot_r	elbow_flex_r	pro_sup_r	wrist_flex_r	wrist_dev_r	arm_flex_l	arm_add_l	arm_rot_l	elbow_flex_l	pro_sup_l	wrist_flex_l	wrist_dev_l
     24.02000000	     -7.49897184	     -2.64567130	     -0.01466917	      0.81564794	      0.92921442	      0.54788426	     16.54710775	      1.56768332	    -15.84207921	     16.59024907	     16.59024907	      9.15881094	     -0.34475640	     -4.90109173	     33.76943876	     -9.71779650	     -1.16106303	     34.17679351	     34.17679351	     12.51124001	    -18.29970804	     15.84582237	    -12.13011361	      5.56141692	      2.07546167	     20.18941866	    -18.33966019	     -3.17576713	     43.09887234	     37.87644037	      0.00000000	      0.00000000	      3.65923641	     -6.55558960	    -12.94299442	     26.40999974	     39.67811548	      0.00000000	      0.00000000
     24.03307143	     -7.61968983	     -2.50204817	      0.37768500	      0.81347680	      0.92896405	      0.54774837	     16.46474288	      1.32996969	    -15.96891763	     16.86908596	     16.86908596	      9.53734934	     -0.68012869	     -4.94135931	     34.49153609	     -9.20999733	     -0.71133275	     31.82781200	     31.82781200	     11.73711032	    -17.43896792	     14.59464871	    -12.06650458	      5.45067940	      2.06729528	     21.62403019	    -18.67787934	     -3.16507479	     43.94437426	     38.04383866	      0.00000000	      0.00000000	      2.88087915	     -6.61837021	    -12.36659884	     25.76181217	     39.74340415	      0.00000000	      0.00000000
     24.04614286	     -7.68899817	     -2.50116664	      0.72708745	      0.81150479	      0.92866855	      0.54773057	     16.24574669	      1.26803947	    -16.16545351	     17.01866541	     17.01866541	      9.98981075	     -0.78082116	     -4.70643646	     34.82443698	     -8.97474620	     -0.62174521	     28.85881968	     28.85881968	      9.21940889	    -16.54154358	      9.14003496	    -12.02135093	      5.51386060	      2.28856809	     23.01688435	    -19.26239251	     -2.61111929	     44.47643735	     38.68787768	      0.00000000	      0.00000000	      2.01633426	     -6.82090998	    -10.65925054	     25.36406152	     40.04261611	      0.00000000	      0.00000000
     24.05921429	     -7.84726548	     -2.64515185	      1.09985588	      0.80940111	      0.92815018	      0.54759110	     16.13973938	      1.35100030	    -16.41199535	     17.15336150	     17.15336150	     10.26750222	     -1.00208443	     -4.83167454	     35.52334370	     -8.81024095	     -0.24057036	     26.58286366	     26.58286366	      8.91407026	    -15.05160165	      9.37589361	    -11.93061253	      5.76720580	      2.67335049	     24.32433131	    -20.00032029	     -2.79841576	     44.94153474	     38.71758312	      0.00000000	      0.00000000	      1.33937910	     -6.75129545	    -10.61800717	     25.13497309	     40.05475147	      0.00000000	      0.00000000
     24.07228571	     -7.80793494	     -2.41071834	      1.38244693	      0.80775763	      0.92826494	      0.54743101	     15.71475129	      1.07978438	    -16.42721000	     17.14536112	     17.14536112	     10.57956194	     -1.12769213	     -4.88704049	     35.51058759	     -8.40398386	     -0.50591305	     23.79546781	     23.79546781	      8.32375480	    -13.20131429	      9.40298575	    -11.95796672	      5.53654355	      2.68047268	     25.60087537	    -20.04653940	     -2.81934571	     45.56155944	     38.78247839	      0.00000000	      0.00000000	      0.53058782	     -6.85189989	    -10.45917702	     24.77995741	     40.09171667	      0.00000000	      0.00000000
     24.08535714	     -7.79366559	     -2.54984445	      1.65918542	      0.80614818	      0.92801451	      0.54722234	     15.31963787	      1.17961956	    -16.73120822	     17.13867623	     17.13867623	     10.97719849	     -1.01902145	     -4.74666327	     35.61043540	     -8.38656560	     -0.74861821	     21.28273706	     21.28273706	      6.96145498	    -11.62539308	      7.21142442	    -11.98158692	      5.75859836	      2.50948629	     27.38580564	    -20.22536700	     -2.23994455	     45.43657658	     39.39880541	      0.00000000	      0.00000000	     -0.65425688	     -6.99480811	     -9.26203447	     25.08170829	     40.43416063	      0.00000000	      0.00000000
     24.09842857	     -7.80895409	     -2.60752700	      1.88958999	      0.80461472	      0.92790754	      0.54691628	     14.90415958	      1.23064472	    -16.87090631	     17.01253562	     17.01253562	     11.20699966	     -1.04697713	     -4.79873125	     35.73119036	     -8.26546068	     -0.95473570	     19.16075872	     19.16075872	      6.48129247	    -10.25346952	      7.74406069	    -11.95790764	      5.88871306	      2.74939030	     28.51057907	    -20.57610100	     -2.34111958	     45.88992270	     39.46269921	      0.00000000	      0.00000000	     -1.30789180	     -6.97862129	     -9.15904480	     24.89755248	     40.47369443	      0.00000000	      0.00000000
     24.11150000	     -7.78842331	     -2.70177575	      2.08912118	      0.80323465	      0.92788989	      0.54650244	     14.39006390	      1.32695991	    -17.04991513	     16.78412740	     16.78412740	     11.43171749	     -0.92649011	     -4.82517198	     35.80378657	     -8.21876777	     -1.32197421	     17.38422327	     17.38422327	      6.05394961	     -8.98777580	      8.23912025	    -11.94660724	      6.06147284	      2.92522278	     29.62739356	    -20.82709430	     -2.41867092	     46.30497325	     39.53445956	      0.00000000	      0.00000000	     -1.99061576	     -6.96343845	     -9.04555283	     24.80165354	     40.51611495	      0.00000000	      0.00000000
